<svg width="37" height="36" viewBox="0 0 37 36" fill="none" xmlns="http://www.w3.org/2000/svg">
<g clip-path="url(#clip0_626_2001)">
<path d="M23.788 17.1C23.7047 18.0495 22.8907 18.7905 21.901 18.7905C20.8557 18.7905 20.0063 17.9655 20.0063 16.947C20.0063 15.9285 20.8542 15.1035 21.8995 15.1035C22.9524 15.147 23.788 15.9885 23.788 17.019C23.788 17.0475 23.788 17.0745 23.7864 17.103V17.0985L23.788 17.1ZM15.1485 15.105C14.0878 15.1965 13.263 16.056 13.263 17.103C13.263 18.15 14.0878 19.0095 15.1408 19.101H15.1485C16.2015 19.0575 17.037 18.216 17.037 17.1855C17.037 17.157 17.037 17.13 17.0355 17.1015V17.106C17.037 17.076 17.0386 17.0415 17.0386 17.0055C17.0386 15.978 16.2045 15.141 15.1593 15.102H15.1562L15.1485 15.105ZM34.6876 3.708V36C30.0271 31.992 31.5164 33.3195 26.1036 28.422L27.0841 31.752H6.10353C4.00841 31.746 2.31104 30.093 2.31104 28.053C2.31104 28.05 2.31104 28.047 2.31104 28.044V3.708C2.31104 3.705 2.31104 3.702 2.31104 3.699C2.31104 1.659 4.00841 0.006 6.10199 0H30.8935C32.9887 0.006 34.686 1.659 34.686 3.699V3.708H34.6876ZM29.4151 20.772C29.3503 16.9335 28.3729 13.332 26.6863 10.143L26.7511 10.278C25.3266 9.1815 23.5321 8.4855 21.5742 8.3895L21.5526 8.388L21.2936 8.676C23.0665 9.144 24.6082 9.9315 25.9217 10.9785L25.9001 10.962C23.7433 9.8085 21.1733 9.129 18.44 9.129C16.1382 9.129 13.9522 9.6105 11.9819 10.476L12.0806 10.437C11.3961 10.743 10.9891 10.962 10.9891 10.962C12.3519 9.879 13.983 9.063 15.7682 8.622L15.8546 8.604L15.6696 8.388C13.6901 8.4855 11.8956 9.1815 10.4526 10.2915L10.4711 10.278C8.84924 13.332 7.87183 16.9335 7.80708 20.751V20.772C9.03887 22.4385 11.0261 23.511 13.2692 23.511C13.3324 23.511 13.3956 23.5095 13.4588 23.508H13.4496C13.4496 23.508 14.1341 22.698 14.6891 22.014C13.354 21.6795 12.2347 20.9235 11.4624 19.905L11.4516 19.89C11.7229 20.076 12.1731 20.316 12.207 20.34C14.0709 21.348 16.2955 21.9405 18.6635 21.9405C20.4996 21.9405 22.2494 21.5835 23.8435 20.9385L23.7541 20.97C24.5681 20.667 25.268 20.31 25.9186 19.8855L25.88 19.9095C25.0691 20.964 23.9113 21.7275 22.5747 22.044L22.5346 22.0515C23.0896 22.7355 23.7556 23.5095 23.7556 23.5095C23.8065 23.511 23.8666 23.511 23.9267 23.511C26.1791 23.511 28.174 22.44 29.4027 20.7915L29.4166 20.772H29.4151Z" fill="white"/>
</g>
<defs>
<clipPath id="clip0_626_2001">
<rect width="37" height="36" fill="white"/>
</clipPath>
</defs>
</svg>
