<svg width="9" height="6" viewBox="0 0 9 6" fill="none" xmlns="http://www.w3.org/2000/svg">
<path d="M0.442219 0.587645C0.727289 0.275274 1.2191 0.275274 1.50417 0.587645L4.99085 4.40824C5.24135 4.68272 5.24135 5.10289 4.99085 5.37737C4.70578 5.68974 4.21397 5.68974 3.9289 5.37737L0.442219 1.55678C0.191723 1.2823 0.191722 0.862131 0.442219 0.587645Z" fill="#1F2040"/>
<path d="M8.55778 0.581824C8.80828 0.85631 8.80828 1.27648 8.55778 1.55096L5.02855 5.41818C4.74348 5.73055 4.25167 5.73055 3.9666 5.41818C3.7161 5.14369 3.71611 4.72352 3.9666 4.44904L7.49583 0.581824C7.7809 0.269453 8.27271 0.269453 8.55778 0.581824Z" fill="#1F2040"/>
</svg>
