<svg width="106" height="106" viewBox="0 0 106 106" fill="none" xmlns="http://www.w3.org/2000/svg">
<g clip-path="url(#clip0_626_2898)">
<path d="M52.9994 2.08339L53.9072 1.3652L55.632 0.000244141L52.9994 2.08339Z" fill="#7173FC"/>
<path d="M59.7145 44.5134C59.7145 39.103 57.4514 36.2427 55.6329 33.9444C54.1044 32.0128 53 30.617 53 27.542C53 24.4665 54.1044 23.0709 55.6329 21.1391C57.4512 18.8407 59.7145 15.9803 59.7145 10.5698C59.7145 5.15921 57.4512 2.29866 55.6322 0.000610352L53.9073 1.36515L50.367 4.1667C51.8955 6.09851 53 7.49431 53 10.5698C53 13.6454 51.8957 15.041 50.367 16.9728C48.5487 19.2713 46.2856 22.1314 46.2856 27.542C46.2856 32.9523 48.5487 35.8125 50.3672 38.1107C51.8957 40.0425 52.9998 41.4379 52.9998 44.5134C52.9998 47.5888 51.8955 48.9844 50.3672 50.9162C48.5489 53.2147 46.2856 56.0748 46.2856 61.4854C46.2856 66.8957 48.5487 69.7561 50.3672 72.0543C51.8957 73.9861 52.9998 75.3817 52.9998 78.4572C52.9998 81.5332 51.8953 82.929 50.3668 84.8613C48.5485 87.1597 46.2854 90.0203 46.2854 95.431C46.2854 100.842 48.548 103.702 50.3662 106L55.6318 101.834C54.1041 99.9027 53 98.5073 53 95.431C53 92.355 54.1046 90.9592 55.6331 89.0269C57.4514 86.7285 59.7145 83.8679 59.7145 78.4572C59.7145 73.0466 57.4514 70.1861 55.6329 67.888C54.1044 65.9562 53 64.5608 53 61.4854C53 58.4099 54.1044 57.0143 55.6329 55.0825C57.4512 52.7843 59.7145 49.9241 59.7145 44.5134Z" fill="#7173FC"/>
<path d="M19.9957 2.08339L20.7603 1.47845L22.6283 0.000244141L19.9957 2.08339Z" fill="#7173FC"/>
<path d="M19.9961 27.5422C19.9961 24.4667 21.1006 23.0711 22.6289 21.1393C24.4475 18.8407 26.7106 15.9803 26.7106 10.5698C26.7106 5.15921 24.4473 2.29866 22.6287 0.000610352L20.7603 1.4784L17.3633 4.16691C18.892 6.09872 19.9965 7.49431 19.9965 10.5698C19.9965 13.6454 18.892 15.041 17.3635 16.9728C15.5452 19.2713 13.2821 22.1316 13.2821 27.542C13.2821 32.9523 15.5452 35.8125 17.3635 38.1107C18.892 40.0425 19.9965 41.4379 19.9965 44.5134C19.9965 47.5888 18.892 48.9844 17.3635 50.9162C15.5452 53.2147 13.2821 56.0748 13.2821 61.4854C13.2821 66.8957 15.5445 69.7552 17.3623 72.0529L22.6279 67.8866C21.1 65.9558 19.9963 64.561 19.9963 61.4856C19.9963 58.4101 21.1008 57.0145 22.6294 55.0827C24.4477 52.7843 26.7108 49.9241 26.7108 44.5136C26.7108 39.1032 24.4475 36.2429 22.6292 33.9446C21.1004 32.0128 19.9961 30.6172 19.9961 27.5422Z" fill="#7173FC"/>
<path d="M86.0034 27.5422C86.0034 24.4668 87.1079 23.0712 88.6362 21.1394C90.4546 18.8409 92.7179 15.9806 92.7179 10.57C92.7179 5.15945 90.4546 2.29911 88.636 0.000854492L86.7506 1.49231L83.3706 4.16715C84.8993 6.09896 86.0036 7.49456 86.0036 10.57C86.0036 13.6457 84.8991 15.0413 83.3706 16.9731C81.5522 19.2715 79.2892 22.1319 79.2892 27.5422C79.2892 32.9526 81.5522 35.8127 83.3706 38.111C84.8991 40.0428 86.0036 41.4382 86.0036 44.5136C86.0036 47.5891 84.8991 48.9847 83.3706 50.9165C81.5522 53.2149 79.2892 56.0751 79.2892 61.4856C79.2892 66.896 81.5516 69.7555 83.3694 72.0531L88.635 67.8868C87.1071 65.956 86.0034 64.5613 86.0034 61.4858C86.0034 58.4104 87.1079 57.0148 88.6364 55.083C90.455 52.7843 92.7181 49.924 92.7181 44.5136C92.7181 39.1033 90.4548 36.2429 88.6364 33.9447C87.1077 32.0129 86.0034 30.6173 86.0034 27.5422Z" fill="#7173FC"/>
<path d="M86.0031 2.08339L86.7506 1.4919L88.6357 0.000244141L86.0031 2.08339Z" fill="#7173FC"/>
<path d="M6.85165 48.5457C9.07876 48.5457 10.8842 46.7403 10.8842 44.5131C10.8842 42.286 9.07876 40.4806 6.85165 40.4806C4.62453 40.4806 2.81909 42.286 2.81909 44.5131C2.81909 46.7403 4.62453 48.5457 6.85165 48.5457Z" fill="#7173FC"/>
<path d="M4.03255 99.4626C6.25967 99.4626 8.06511 97.6571 8.06511 95.43C8.06511 93.2029 6.25967 91.3975 4.03255 91.3975C1.80544 91.3975 0 93.2029 0 95.43C0 97.6571 1.80544 99.4626 4.03255 99.4626Z" fill="#7173FC"/>
<path d="M36.4986 82.4911C38.7257 82.4911 40.5312 80.6857 40.5312 78.4586C40.5312 76.2315 38.7257 74.426 36.4986 74.426C34.2715 74.426 32.4661 76.2315 32.4661 78.4586C32.4661 80.6857 34.2715 82.4911 36.4986 82.4911Z" fill="#7173FC"/>
<path d="M33.1412 31.5744C35.3683 31.5744 37.1737 29.7689 37.1737 27.5418C37.1737 25.3147 35.3683 23.5093 33.1412 23.5093C30.9141 23.5093 29.1086 25.3147 29.1086 27.5418C29.1086 29.7689 30.9141 31.5744 33.1412 31.5744Z" fill="#7173FC"/>
<path d="M39.856 14.6023C42.0832 14.6023 43.8886 12.7969 43.8886 10.5698C43.8886 8.34267 42.0832 6.53723 39.856 6.53723C37.6289 6.53723 35.8235 8.34267 35.8235 10.5698C35.8235 12.7969 37.6289 14.6023 39.856 14.6023Z" fill="#7173FC"/>
<path d="M66.144 65.5704C68.3711 65.5704 70.1766 63.7649 70.1766 61.5378C70.1766 59.3107 68.3711 57.5052 66.144 57.5052C63.9169 57.5052 62.1115 59.3107 62.1115 61.5378C62.1115 63.7649 63.9169 65.5704 66.144 65.5704Z" fill="#7173FC"/>
<path d="M66.144 99.4626C68.3711 99.4626 70.1766 97.6571 70.1766 95.43C70.1766 93.2029 68.3711 91.3975 66.144 91.3975C63.9169 91.3975 62.1115 93.2029 62.1115 95.43C62.1115 97.6571 63.9169 99.4626 66.144 99.4626Z" fill="#7173FC"/>
<path d="M72.8588 48.5457C75.086 48.5457 76.8914 46.7403 76.8914 44.5131C76.8914 42.286 75.086 40.4806 72.8588 40.4806C70.6317 40.4806 68.8263 42.286 68.8263 44.5131C68.8263 46.7403 70.6317 48.5457 72.8588 48.5457Z" fill="#7173FC"/>
<path d="M95.2527 99.4626C97.4798 99.4626 99.2852 97.6571 99.2852 95.43C99.2852 93.2029 97.4798 91.3975 95.2527 91.3975C93.0255 91.3975 91.2201 93.2029 91.2201 95.43C91.2201 97.6571 93.0255 99.4626 95.2527 99.4626Z" fill="#7173FC"/>
<path d="M101.967 82.4911C104.195 82.4911 106 80.6857 106 78.4586C106 76.2315 104.195 74.426 101.967 74.426C99.7404 74.426 97.9349 76.2315 97.9349 78.4586C97.9349 80.6857 99.7404 82.4911 101.967 82.4911Z" fill="#7173FC"/>
<path d="M99.1491 31.5744C101.376 31.5744 103.182 29.7689 103.182 27.5418C103.182 25.3147 101.376 23.5093 99.1491 23.5093C96.922 23.5093 95.1166 25.3147 95.1166 27.5418C95.1166 29.7689 96.922 31.5744 99.1491 31.5744Z" fill="#7173FC"/>
</g>
<defs>
<clipPath id="clip0_626_2898">
<rect width="106" height="106" fill="white"/>
</clipPath>
</defs>
</svg>
