<svg width="122" height="122" viewBox="0 0 122 122" fill="none" xmlns="http://www.w3.org/2000/svg">
<g clip-path="url(#clip0_626_3649)">
<path d="M101.626 67.8561C96.5312 57.5035 78.2938 48.842 73.9853 38.3412C75.6258 29.5438 85.8794 26.4225 88.0997 17.8216C89.2544 13.3502 87.8887 7.8831 83.5788 5.61465C77.7289 2.53591 74.2182 6.90683 69.5427 9.08694C67.4102 10.0814 67.9578 15.6085 67.7454 8.18294C67.7216 7.35957 67.9691 6.4999 67.8058 5.6676C67.4162 3.68887 66.7939 1.89963 64.9142 0.83531C59.702 -2.11612 57.2959 3.47173 54.66 6.45825C51.6768 9.83892 52.5388 7.77929 49.2456 6.4056C47.3526 5.61584 46.1702 5.10509 44.1474 5.5614C30.2657 8.68952 43.0278 29.9938 49.0957 37.3816C48.5124 41.9069 28.6038 52.8821 25.3796 57.1192C19.0519 65.436 16.0773 76.2095 17.5001 86.5787C20.2492 106.607 37.1805 119.89 56.6105 121.767C75.8799 123.627 94.568 114.306 102.025 95.9218C105.716 86.8197 106.001 76.7494 101.626 67.8561ZM70.6707 66.2165C69.9071 66.2575 69.1861 66.3935 68.5138 66.6677C67.0134 65.4101 65.7402 63.9588 65.1081 61.9443C64.5864 60.2803 61.7281 59.951 61.3952 61.9443C60.7893 65.577 62.2183 68.3228 65.0704 70.6249C66.9459 72.139 69.3259 73.1849 70.8551 75.0729C74.154 79.1457 70.8194 83.3272 67.379 85.4865C66.6561 85.5147 65.9785 85.9106 65.7846 86.8227C65.4121 88.5786 65.1239 90.3571 64.9258 92.1419C64.9228 92.1684 64.9198 92.2317 64.9169 92.2719C64.3463 92.52 63.8017 92.7237 63.3293 92.8207C63.072 92.8733 62.8718 92.9156 62.6451 92.9626C62.3652 91.1873 62.157 89.1542 62.0053 88.0262C62.4075 87.3658 62.1409 86.4529 61.4919 85.9666C59.7827 84.686 57.7718 84.1699 56.3443 82.4615C55.7297 81.7262 55.2246 80.8133 54.9596 79.8888C54.7668 79.2174 54.7868 78.5431 54.8025 77.8652C54.8222 77.8669 54.8421 77.8705 54.8614 77.8726C55.9811 77.9856 57.096 78.0073 58.2201 78.0228C58.3516 78.0246 58.4869 77.9452 58.6246 77.9172C59.4186 79.8757 60.908 81.9044 63.0036 81.982C65.129 82.0606 66.5895 79.9465 66.1171 77.9282C65.4606 75.1264 61.4395 73.8592 59.3659 72.5087C56.8512 70.8706 54.5976 68.1485 54.8837 64.9172C55.2047 61.2863 58.2936 60.3925 60.9526 58.8644C61.5993 58.4929 61.7117 57.8031 61.4993 57.212C61.5499 57.0993 61.5877 56.9838 61.5784 56.8568C61.6076 56.8259 61.6379 56.7917 61.6763 56.6031C61.7989 56.2432 61.9062 55.8791 61.9985 55.5111C62.1814 54.768 62.2929 54.0074 62.4235 53.2528C62.6535 51.9273 62.6933 49.9503 63.4876 48.7852C64.0739 47.9252 63.9016 48.4291 64.236 49.4357C64.4713 50.1437 64.6361 50.8844 64.7461 51.6224C65.0058 53.367 64.8059 55.1425 65.1965 56.8616C65.4032 57.7712 66.256 58.1112 67.053 58.0056C69.6953 60.0679 73.8973 62.9765 70.6707 66.2165ZM68.028 37.5527C68.1101 38.3374 68.2241 39.0986 68.3895 39.8214C63.7987 39.6174 58.6871 41.4354 54.1142 40.1189C54.0919 39.2875 53.889 38.4269 53.4235 37.5223C53.4059 37.2977 53.3506 37.069 53.2373 36.8411C53.2197 36.8066 53.1903 36.7552 53.1715 36.7186C57.7557 38.9347 63.5973 39.5811 68.028 37.5527Z" fill="#7173FC"/>
</g>
<defs>
<clipPath id="clip0_626_3649">
<rect width="122" height="122" fill="white"/>
</clipPath>
</defs>
</svg>
