<svg width="1000" height="1000" viewBox="0 0 1000 1000" fill="none" xmlns="http://www.w3.org/2000/svg">
<circle cx="500" cy="500" r="500" fill="black"/>
<g clip-path="url(#clip0_2_28)">
<path d="M292.059 626.879C295.777 623.167 300.888 621.003 306.309 621.003H797.932C806.916 621.003 811.408 631.827 805.057 638.167L707.941 735.124C704.223 738.835 699.112 741 693.691 741H202.068C193.084 741 188.592 730.175 194.943 723.835L292.059 626.879Z" fill="url(#paint0_linear_2_28)"/>
<path d="M292.059 264.876C295.932 261.165 301.043 259 306.309 259H797.932C806.916 259 811.408 269.825 805.057 276.165L707.941 373.121C704.223 376.833 699.112 378.997 693.691 378.997H202.068C193.084 378.997 188.592 368.173 194.943 361.833L292.059 264.876Z" fill="url(#paint1_linear_2_28)"/>
<path d="M707.941 444.718C704.223 441.006 699.112 438.841 693.691 438.841H202.068C193.084 438.841 188.592 449.666 194.943 456.006L292.059 552.963C295.777 556.674 300.888 558.839 306.309 558.839H797.932C806.916 558.839 811.408 548.014 805.057 541.674L707.941 444.718Z" fill="url(#paint2_linear_2_28)"/>
</g>
<defs>
<linearGradient id="paint0_linear_2_28" x1="750.968" y1="201.081" x2="411.605" y2="852.168" gradientUnits="userSpaceOnUse">
<stop stop-color="#00FFA3"/>
<stop offset="1" stop-color="#DC1FFF"/>
</linearGradient>
<linearGradient id="paint1_linear_2_28" x1="602.195" y1="123.537" x2="262.833" y2="774.624" gradientUnits="userSpaceOnUse">
<stop stop-color="#00FFA3"/>
<stop offset="1" stop-color="#DC1FFF"/>
</linearGradient>
<linearGradient id="paint2_linear_2_28" x1="676.108" y1="162.062" x2="336.745" y2="813.149" gradientUnits="userSpaceOnUse">
<stop stop-color="#00FFA3"/>
<stop offset="1" stop-color="#DC1FFF"/>
</linearGradient>
<clipPath id="clip0_2_28">
<rect width="616" height="482" fill="white" transform="translate(192 259)"/>
</clipPath>
</defs>
</svg>
