<svg width="1000" height="1000" viewBox="0 0 1000 1000" fill="none" xmlns="http://www.w3.org/2000/svg">
<g clip-path="url(#clip0_2_3)">
<path d="M500 0C776.13 0 1000 223.87 1000 500C1000 776.13 776.12 1000 500 1000C223.88 1000 0 776.19 0 500C0 223.81 223.84 0 500 0Z" fill="#53AE94"/>
<path d="M561.71 433.38V359H731.8V245.67H268.64V359H438.75V433.32C300.5 439.67 196.55 467.05 196.55 499.85C196.55 532.65 300.55 560.03 438.75 566.42V804.67H561.75V566.4C699.75 560.03 803.49 532.67 803.49 499.9C803.49 467.13 699.75 439.77 561.75 433.4M561.75 546.22V546.16C558.28 546.38 540.45 547.45 500.75 547.45C469.01 547.45 446.68 546.55 438.81 546.14V546.24C316.67 540.83 225.5 519.56 225.5 494.11C225.5 468.66 316.68 447.42 438.81 442V525.05C446.81 525.6 469.69 526.95 501.27 526.95C539.2 526.95 558.27 525.37 561.77 525.05V442C683.67 447.43 774.63 468.72 774.63 494.08C774.63 519.44 683.63 540.74 561.77 546.17" fill="white"/>
</g>
<defs>
<clipPath id="clip0_2_3">
<rect width="1000" height="1000" fill="white"/>
</clipPath>
</defs>
</svg>
