<svg width="1000" height="1000" viewBox="0 0 1000 1000" fill="none" xmlns="http://www.w3.org/2000/svg">
<g clip-path="url(#clip0_2_7)">
<path d="M500 1000C777.085 1000 1000 777.085 1000 500C1000 222.915 777.085 0 500 0C222.915 0 0 222.915 0 500C0 777.085 222.915 1000 500 1000Z" fill="#2775CA"/>
<path d="M637.5 579.165C637.5 506.25 593.75 481.25 506.25 470.835C443.75 462.5 431.25 445.835 431.25 416.665C431.25 387.495 452.085 368.75 493.75 368.75C531.25 368.75 552.085 381.25 562.5 412.5C564.585 418.75 570.835 422.915 577.085 422.915H610.415C618.75 422.915 625 416.665 625 408.335V406.25C616.665 360.415 579.165 325 531.25 320.835V270.835C531.25 262.5 525 256.25 514.585 254.165H483.335C475 254.165 468.75 260.415 466.665 270.835V318.75C404.165 327.085 364.585 368.75 364.585 420.835C364.585 489.585 406.25 516.665 493.75 527.085C552.085 537.5 570.835 550 570.835 583.335C570.835 616.67 541.665 639.585 502.085 639.585C447.915 639.585 429.165 616.665 422.915 585.415C420.835 577.085 414.585 572.915 408.335 572.915H372.915C364.585 572.915 358.335 579.165 358.335 587.5V589.585C366.665 641.665 400 679.165 468.75 689.585V739.585C468.75 747.915 475 754.165 485.415 756.25H516.665C525 756.25 531.25 750 533.335 739.585V689.585C595.835 679.165 637.5 635.415 637.5 579.165V579.165Z" fill="white"/>
<path d="M393.75 797.915C231.25 739.585 147.915 558.335 208.335 397.915C239.585 310.415 308.335 243.75 393.75 212.5C402.085 208.335 406.25 202.085 406.25 191.665V162.5C406.25 154.165 402.085 147.915 393.75 145.835C391.665 145.835 387.5 145.835 385.415 147.915C187.5 210.415 79.165 420.835 141.665 618.75C179.165 735.415 268.75 825 385.415 862.5C393.75 866.665 402.085 862.5 404.165 854.165C406.25 852.085 406.25 850 406.25 845.835V816.665C406.25 810.415 400 802.085 393.75 797.915ZM614.585 147.915C606.25 143.75 597.915 147.915 595.835 156.25C593.75 158.335 593.75 160.415 593.75 164.585V193.75C593.75 202.085 600 210.415 606.25 214.585C768.75 272.915 852.085 454.165 791.665 614.585C760.415 702.085 691.665 768.75 606.25 800C597.915 804.165 593.75 810.415 593.75 820.835V850C593.75 858.335 597.915 864.585 606.25 866.665C608.335 866.665 612.5 866.665 614.585 864.585C812.5 802.085 920.835 591.665 858.335 393.75C820.835 275 729.165 185.415 614.585 147.915V147.915Z" fill="white"/>
</g>
<defs>
<clipPath id="clip0_2_7">
<rect width="1000" height="1000" fill="white"/>
</clipPath>
</defs>
</svg>
